solid ascii
  facet normal -9.872052e+000 1.563583e+000 -2.192036e-015
    outer loop
      vertex   -9.510564e+001 3.090171e+001 1.000000e+003
      vertex   -1.000000e+002 0.000000e+000 2.842171e-013
      vertex   -1.000000e+002 0.000000e+000 1.000000e+003
    endloop
  endfacet
  facet normal -3.088658e-001 -4.891968e-002 -6.858199e-017
    outer loop
      vertex   -1.000000e+002 0.000000e+000 1.000000e+003
      vertex   -1.000000e+002 0.000000e+000 2.842171e-013
      vertex   -9.510564e+001 -3.090170e+001 2.842171e-013
    endloop
  endfacet
  facet normal -9.872052e+000 -1.563584e+000 -2.200710e-015
    outer loop
      vertex   -1.000000e+002 0.000000e+000 1.000000e+003
      vertex   -9.510564e+001 -3.090170e+001 2.842171e-013
      vertex   -9.510564e+001 -3.090170e+001 1.000000e+003
    endloop
  endfacet
  facet normal -2.786319e-001 -1.419698e-001 -6.186870e-017
    outer loop
      vertex   -9.510564e+001 -3.090170e+001 1.000000e+003
      vertex   -9.510564e+001 -3.090170e+001 2.842171e-013
      vertex   -8.090171e+001 -5.877852e+001 2.842171e-013
    endloop
  endfacet
  facet normal -8.905710e+000 -4.537680e+000 -1.977465e-015
    outer loop
      vertex   -9.510564e+001 -3.090170e+001 1.000000e+003
      vertex   -8.090171e+001 -5.877852e+001 2.842171e-013
      vertex   -8.090171e+001 -5.877852e+001 1.000000e+003
    endloop
  endfacet
  facet normal -2.211237e-001 -2.211237e-001 -4.909932e-017
    outer loop
      vertex   -8.090171e+001 -5.877852e+001 1.000000e+003
      vertex   -8.090171e+001 -5.877852e+001 2.842171e-013
      vertex   -5.877852e+001 -8.090171e+001 2.842171e-013
    endloop
  endfacet
  facet normal -7.067609e+000 -7.067609e+000 -1.569325e-015
    outer loop
      vertex   -8.090171e+001 -5.877852e+001 1.000000e+003
      vertex   -5.877852e+001 -8.090171e+001 2.842171e-013
      vertex   -5.877852e+001 -8.090171e+001 1.000000e+003
    endloop
  endfacet
  facet normal -1.419698e-001 -2.786319e-001 -3.152363e-017
    outer loop
      vertex   -5.877852e+001 -8.090171e+001 1.000000e+003
      vertex   -5.877852e+001 -8.090171e+001 2.842171e-013
      vertex   -3.090170e+001 -9.510564e+001 2.842171e-013
    endloop
  endfacet
  facet normal -4.537680e+000 -8.905710e+000 -1.007567e-015
    outer loop
      vertex   -5.877852e+001 -8.090171e+001 1.000000e+003
      vertex   -3.090170e+001 -9.510564e+001 2.842171e-013
      vertex   -3.090170e+001 -9.510564e+001 1.000000e+003
    endloop
  endfacet
  facet normal -4.891968e-002 -3.088658e-001 -1.086235e-017
    outer loop
      vertex   -3.090170e+001 -9.510564e+001 1.000000e+003
      vertex   -3.090170e+001 -9.510564e+001 2.842171e-013
      vertex   -2.087219e-013 -1.000000e+002 2.842170e-013
    endloop
  endfacet
  facet normal -1.563584e+000 -9.872052e+000 -3.385117e-016
    outer loop
      vertex   -3.090170e+001 -9.510564e+001 1.000000e+003
      vertex   -2.087219e-013 -1.000000e+002 2.842170e-013
      vertex   -2.087219e-013 -1.000000e+002 1.000000e+003
    endloop
  endfacet
  facet normal 4.891968e-002 -3.088660e-001 1.033976e-024
    outer loop
      vertex   -2.087219e-013 -1.000000e+002 1.000000e+003
      vertex   -2.087219e-013 -1.000000e+002 2.842170e-013
      vertex   3.090171e+001 -9.510564e+001 2.842171e-013
    endloop
  endfacet
  facet normal 1.563583e+000 -9.872052e+000 3.471852e-016
    outer loop
      vertex   -2.087219e-013 -1.000000e+002 1.000000e+003
      vertex   3.090171e+001 -9.510564e+001 2.842171e-013
      vertex   3.090171e+001 -9.510564e+001 1.000000e+003
    endloop
  endfacet
  facet normal 1.419698e-001 -2.786316e-001 3.152363e-017
    outer loop
      vertex   3.090171e+001 -9.510564e+001 1.000000e+003
      vertex   3.090171e+001 -9.510564e+001 2.842171e-013
      vertex   5.877850e+001 -8.090171e+001 2.842171e-013
    endloop
  endfacet
  facet normal 4.537683e+000 -8.905708e+000 9.902209e-016
    outer loop
      vertex   3.090171e+001 -9.510564e+001 1.000000e+003
      vertex   5.877850e+001 -8.090171e+001 2.842171e-013
      vertex   5.877850e+001 -8.090171e+001 1.000000e+003
    endloop
  endfacet
  facet normal 2.211237e-001 -2.211239e-001 4.909932e-017
    outer loop
      vertex   5.877850e+001 -8.090171e+001 1.000000e+003
      vertex   5.877850e+001 -8.090171e+001 2.842171e-013
      vertex   8.090171e+001 -5.877852e+001 2.842171e-013
    endloop
  endfacet
  facet normal 7.067606e+000 -7.067613e+000 1.534629e-015
    outer loop
      vertex   5.877850e+001 -8.090171e+001 1.000000e+003
      vertex   8.090171e+001 -5.877852e+001 2.842171e-013
      vertex   8.090171e+001 -5.877852e+001 1.000000e+003
    endloop
  endfacet
  facet normal 2.786319e-001 -1.419696e-001 6.186870e-017
    outer loop
      vertex   8.090171e+001 -5.877852e+001 1.000000e+003
      vertex   8.090171e+001 -5.877852e+001 2.842171e-013
      vertex   9.510562e+001 -3.090170e+001 2.842171e-013
    endloop
  endfacet
  facet normal 8.905712e+000 -4.537675e+000 1.994813e-015
    outer loop
      vertex   8.090171e+001 -5.877852e+001 1.000000e+003
      vertex   9.510562e+001 -3.090170e+001 2.842171e-013
      vertex   9.510562e+001 -3.090170e+001 1.000000e+003
    endloop
  endfacet
  facet normal 3.088658e-001 -4.891987e-002 6.858199e-017
    outer loop
      vertex   9.510562e+001 -3.090170e+001 1.000000e+003
      vertex   9.510562e+001 -3.090170e+001 2.842171e-013
      vertex   1.000000e+002 0.000000e+000 2.842171e-013
    endloop
  endfacet
  facet normal 9.872051e+000 -1.563590e+000 2.192036e-015
    outer loop
      vertex   9.510562e+001 -3.090170e+001 1.000000e+003
      vertex   1.000000e+002 0.000000e+000 2.842171e-013
      vertex   1.000000e+002 0.000000e+000 1.000000e+003
    endloop
  endfacet
  facet normal 3.088660e-001 4.891987e-002 6.858202e-017
    outer loop
      vertex   1.000000e+002 0.000000e+000 1.000000e+003
      vertex   1.000000e+002 0.000000e+000 2.842171e-013
      vertex   9.510562e+001 3.090171e+001 2.842171e-013
    endloop
  endfacet
  facet normal 9.872051e+000 1.563589e+000 2.192036e-015
    outer loop
      vertex   1.000000e+002 0.000000e+000 1.000000e+003
      vertex   9.510562e+001 3.090171e+001 2.842171e-013
      vertex   9.510562e+001 3.090171e+001 1.000000e+003
    endloop
  endfacet
  facet normal 2.786316e-001 1.419696e-001 6.186864e-017
    outer loop
      vertex   9.510562e+001 3.090171e+001 1.000000e+003
      vertex   9.510562e+001 3.090171e+001 2.842171e-013
      vertex   8.090171e+001 5.877850e+001 2.842171e-013
    endloop
  endfacet
  facet normal 8.905710e+000 4.537679e+000 1.977465e-015
    outer loop
      vertex   9.510562e+001 3.090171e+001 1.000000e+003
      vertex   8.090171e+001 5.877850e+001 2.842171e-013
      vertex   8.090171e+001 5.877850e+001 1.000000e+003
    endloop
  endfacet
  facet normal 2.211239e-001 2.211239e-001 4.909936e-017
    outer loop
      vertex   8.090171e+001 5.877850e+001 1.000000e+003
      vertex   8.090171e+001 5.877850e+001 2.842171e-013
      vertex   5.877850e+001 8.090171e+001 2.842171e-013
    endloop
  endfacet
  facet normal 7.067609e+000 7.067609e+000 1.569325e-015
    outer loop
      vertex   8.090171e+001 5.877850e+001 1.000000e+003
      vertex   5.877850e+001 8.090171e+001 2.842171e-013
      vertex   5.877850e+001 8.090171e+001 1.000000e+003
    endloop
  endfacet
  facet normal 1.419696e-001 2.786316e-001 3.152359e-017
    outer loop
      vertex   5.877850e+001 8.090171e+001 1.000000e+003
      vertex   5.877850e+001 8.090171e+001 2.842171e-013
      vertex   3.090171e+001 9.510562e+001 2.842171e-013
    endloop
  endfacet
  facet normal 4.537679e+000 8.905710e+000 1.007567e-015
    outer loop
      vertex   5.877850e+001 8.090171e+001 1.000000e+003
      vertex   3.090171e+001 9.510562e+001 2.842171e-013
      vertex   3.090171e+001 9.510562e+001 1.000000e+003
    endloop
  endfacet
  facet normal 4.891987e-002 3.088660e-001 1.086239e-017
    outer loop
      vertex   3.090171e+001 9.510562e+001 1.000000e+003
      vertex   3.090171e+001 9.510562e+001 2.842171e-013
      vertex   -2.087219e-013 1.000000e+002 2.842170e-013
    endloop
  endfacet
  facet normal 1.563589e+000 9.872051e+000 3.471865e-016
    outer loop
      vertex   3.090171e+001 9.510562e+001 1.000000e+003
      vertex   -2.087219e-013 1.000000e+002 2.842170e-013
      vertex   -2.087219e-013 1.000000e+002 1.000000e+003
    endloop
  endfacet
  facet normal -4.891987e-002 3.088658e-001 -1.033976e-024
    outer loop
      vertex   -2.087219e-013 1.000000e+002 1.000000e+003
      vertex   -2.087219e-013 1.000000e+002 2.842170e-013
      vertex   -3.090170e+001 9.510562e+001 2.842171e-013
    endloop
  endfacet
  facet normal -1.563590e+000 9.872051e+000 -3.471866e-016
    outer loop
      vertex   -2.087219e-013 1.000000e+002 1.000000e+003
      vertex   -3.090170e+001 9.510562e+001 2.842171e-013
      vertex   -3.090170e+001 9.510562e+001 1.000000e+003
    endloop
  endfacet
  facet normal -1.419696e-001 2.786319e-001 -3.152359e-017
    outer loop
      vertex   -3.090170e+001 9.510562e+001 1.000000e+003
      vertex   -3.090170e+001 9.510562e+001 2.842171e-013
      vertex   -5.877852e+001 8.090171e+001 2.842171e-013
    endloop
  endfacet
  facet normal -4.537675e+000 8.905712e+000 -1.024913e-015
    outer loop
      vertex   -3.090170e+001 9.510562e+001 1.000000e+003
      vertex   -5.877852e+001 8.090171e+001 2.842171e-013
      vertex   -5.877852e+001 8.090171e+001 1.000000e+003
    endloop
  endfacet
  facet normal -2.211239e-001 2.211237e-001 -4.909936e-017
    outer loop
      vertex   -5.877852e+001 8.090171e+001 1.000000e+003
      vertex   -5.877852e+001 8.090171e+001 2.842171e-013
      vertex   -8.090171e+001 5.877850e+001 2.842171e-013
    endloop
  endfacet
  facet normal -7.067613e+000 7.067606e+000 -1.534631e-015
    outer loop
      vertex   -5.877852e+001 8.090171e+001 1.000000e+003
      vertex   -8.090171e+001 5.877850e+001 2.842171e-013
      vertex   -8.090171e+001 5.877850e+001 1.000000e+003
    endloop
  endfacet
  facet normal -2.786316e-001 1.419698e-001 -6.186864e-017
    outer loop
      vertex   -8.090171e+001 5.877850e+001 1.000000e+003
      vertex   -8.090171e+001 5.877850e+001 2.842171e-013
      vertex   -9.510564e+001 3.090171e+001 2.842171e-013
    endloop
  endfacet
  facet normal -8.905708e+000 4.537683e+000 -1.960117e-015
    outer loop
      vertex   -8.090171e+001 5.877850e+001 1.000000e+003
      vertex   -9.510564e+001 3.090171e+001 2.842171e-013
      vertex   -9.510564e+001 3.090171e+001 1.000000e+003
    endloop
  endfacet
  facet normal -3.088660e-001 4.891968e-002 -6.858202e-017
    outer loop
      vertex   -9.510564e+001 3.090171e+001 1.000000e+003
      vertex   -9.510564e+001 3.090171e+001 2.842171e-013
      vertex   -1.000000e+002 0.000000e+000 2.842171e-013
    endloop
  endfacet
  facet normal -1.305147e-015 0.000000e+000 5.877858e+000
    outer loop
      vertex   -9.510564e+001 -3.090170e+001 1.000000e+003
      vertex   -8.090171e+001 -5.877852e+001 1.000000e+003
      vertex   3.090171e+001 -9.510564e+001 1.000000e+003
    endloop
  endfacet
  facet normal -2.111769e-015 0.000000e+000 9.510562e+000
    outer loop
      vertex   1.000000e+002 0.000000e+000 1.000000e+003
      vertex   9.510562e+001 3.090171e+001 1.000000e+003
      vertex   -9.510564e+001 3.090171e+001 1.000000e+003
    endloop
  endfacet
  facet normal -3.473539e-016 0.000000e+000 1.564343e+000
    outer loop
      vertex   -9.510564e+001 3.090171e+001 1.000000e+003
      vertex   9.510562e+001 3.090171e+001 1.000000e+003
      vertex   8.090171e+001 5.877850e+001 1.000000e+003
    endloop
  endfacet
  facet normal -2.193108e-015 0.000000e+000 9.876883e+000
    outer loop
      vertex   5.877850e+001 -8.090171e+001 1.000000e+003
      vertex   8.090171e+001 -5.877852e+001 1.000000e+003
      vertex   -9.510564e+001 3.090171e+001 1.000000e+003
    endloop
  endfacet
  facet normal -3.473542e-016 0.000000e+000 1.564344e+000
    outer loop
      vertex   -9.510564e+001 3.090171e+001 1.000000e+003
      vertex   8.090171e+001 -5.877852e+001 1.000000e+003
      vertex   9.510562e+001 -3.090170e+001 1.000000e+003
    endloop
  endfacet
  facet normal -3.473544e-016 0.000000e+000 1.564345e+000
    outer loop
      vertex   -9.510564e+001 3.090171e+001 1.000000e+003
      vertex   9.510562e+001 -3.090170e+001 1.000000e+003
      vertex   1.000000e+002 0.000000e+000 1.000000e+003
    endloop
  endfacet
  facet normal -1.796378e-015 0.000000e+000 8.090169e+000
    outer loop
      vertex   8.090171e+001 5.877850e+001 1.000000e+003
      vertex   5.877850e+001 8.090171e+001 1.000000e+003
      vertex   -9.510564e+001 3.090171e+001 1.000000e+003
    endloop
  endfacet
  facet normal -3.473536e-016 0.000000e+000 1.564342e+000
    outer loop
      vertex   -9.510564e+001 3.090171e+001 1.000000e+003
      vertex   5.877850e+001 8.090171e+001 1.000000e+003
      vertex   3.090171e+001 9.510562e+001 1.000000e+003
    endloop
  endfacet
  facet normal -3.473548e-016 0.000000e+000 1.564347e+000
    outer loop
      vertex   -9.510564e+001 3.090171e+001 1.000000e+003
      vertex   3.090171e+001 9.510562e+001 1.000000e+003
      vertex   -2.087219e-013 1.000000e+002 1.000000e+003
    endloop
  endfacet
  facet normal -1.978432e-015 0.000000e+000 8.910066e+000
    outer loop
      vertex   5.877850e+001 -8.090171e+001 1.000000e+003
      vertex   -9.510564e+001 3.090171e+001 1.000000e+003
      vertex   3.090171e+001 -9.510564e+001 1.000000e+003
    endloop
  endfacet
  facet normal -3.473545e-016 0.000000e+000 1.564346e+000
    outer loop
      vertex   3.090171e+001 -9.510564e+001 1.000000e+003
      vertex   -9.510564e+001 3.090171e+001 1.000000e+003
      vertex   -1.000000e+002 0.000000e+000 1.000000e+003
    endloop
  endfacet
  facet normal -3.473542e-016 0.000000e+000 1.564344e+000
    outer loop
      vertex   3.090171e+001 -9.510564e+001 1.000000e+003
      vertex   -1.000000e+002 0.000000e+000 1.000000e+003
      vertex   -9.510564e+001 -3.090170e+001 1.000000e+003
    endloop
  endfacet
  facet normal -1.008062e-015 0.000000e+000 4.539906e+000
    outer loop
      vertex   -8.090171e+001 -5.877852e+001 1.000000e+003
      vertex   -5.877852e+001 -8.090171e+001 1.000000e+003
      vertex   3.090171e+001 -9.510564e+001 1.000000e+003
    endloop
  endfacet
  facet normal -3.473537e-016 0.000000e+000 1.564342e+000
    outer loop
      vertex   3.090171e+001 -9.510564e+001 1.000000e+003
      vertex   -5.877852e+001 -8.090171e+001 1.000000e+003
      vertex   -3.090170e+001 -9.510564e+001 1.000000e+003
    endloop
  endfacet
  facet normal -3.473551e-016 0.000000e+000 1.564348e+000
    outer loop
      vertex   3.090171e+001 -9.510564e+001 1.000000e+003
      vertex   -3.090170e+001 -9.510564e+001 1.000000e+003
      vertex   -2.087219e-013 -1.000000e+002 1.000000e+003
    endloop
  endfacet
  facet normal -1.008059e-015 0.000000e+000 4.539896e+000
    outer loop
      vertex   -2.087219e-013 1.000000e+002 1.000000e+003
      vertex   -3.090170e+001 9.510562e+001 1.000000e+003
      vertex   -9.510564e+001 3.090171e+001 1.000000e+003
    endloop
  endfacet
  facet normal -3.473550e-016 0.000000e+000 1.564348e+000
    outer loop
      vertex   -9.510564e+001 3.090171e+001 1.000000e+003
      vertex   -3.090170e+001 9.510562e+001 1.000000e+003
      vertex   -5.877852e+001 8.090171e+001 1.000000e+003
    endloop
  endfacet
  facet normal -3.473543e-016 0.000000e+000 1.564345e+000
    outer loop
      vertex   -9.510564e+001 3.090171e+001 1.000000e+003
      vertex   -5.877852e+001 8.090171e+001 1.000000e+003
      vertex   -8.090171e+001 5.877850e+001 1.000000e+003
    endloop
  endfacet
  facet normal -1.416133e-020 -4.705902e-021 -9.876884e+000
    outer loop
      vertex   -3.090170e+001 9.510562e+001 2.842171e-013
      vertex   -2.087219e-013 1.000000e+002 2.842170e-013
      vertex   3.090171e+001 -9.510564e+001 2.842171e-013
    endloop
  endfacet
  facet normal 2.481542e-021 0.000000e+000 -1.564345e+000
    outer loop
      vertex   3.090171e+001 -9.510564e+001 2.842171e-013
      vertex   -2.087219e-013 1.000000e+002 2.842170e-013
      vertex   3.090171e+001 9.510562e+001 2.842171e-013
    endloop
  endfacet
  facet normal -3.308722e-022 0.000000e+000 -1.564343e+000
    outer loop
      vertex   3.090171e+001 -9.510564e+001 2.842171e-013
      vertex   3.090171e+001 9.510562e+001 2.842171e-013
      vertex   5.877850e+001 8.090171e+001 2.842171e-013
    endloop
  endfacet
  facet normal 7.940934e-022 -1.820349e-021 -9.510565e+000
    outer loop
      vertex   -9.510564e+001 3.090171e+001 2.842171e-013
      vertex   -8.090171e+001 5.877850e+001 2.842171e-013
      vertex   3.090171e+001 -9.510564e+001 2.842171e-013
    endloop
  endfacet
  facet normal 1.621274e-021 7.837327e-022 -1.564346e+000
    outer loop
      vertex   3.090171e+001 -9.510564e+001 2.842171e-013
      vertex   -8.090171e+001 5.877850e+001 2.842171e-013
      vertex   -5.877852e+001 8.090171e+001 2.842171e-013
    endloop
  endfacet
  facet normal 9.926167e-023 1.818447e-023 -1.564344e+000
    outer loop
      vertex   3.090171e+001 -9.510564e+001 2.842171e-013
      vertex   -5.877852e+001 8.090171e+001 2.842171e-013
      vertex   -3.090170e+001 9.510562e+001 2.842171e-013
    endloop
  endfacet
  facet normal 4.698386e-021 -1.908588e-021 -1.564354e+000
    outer loop
      vertex   9.510562e+001 -3.090170e+001 2.842171e-013
      vertex   8.090171e+001 -5.877852e+001 2.842171e-013
      vertex   5.877850e+001 -8.090171e+001 2.842171e-013
    endloop
  endfacet
  facet normal 1.138201e-020 9.249307e-021 -8.090172e+000
    outer loop
      vertex   3.090171e+001 -9.510564e+001 2.842171e-013
      vertex   -2.087219e-013 -1.000000e+002 2.842170e-013
      vertex   -9.510564e+001 3.090171e+001 2.842171e-013
    endloop
  endfacet
  facet normal -2.646978e-021 -1.736094e-021 -1.564344e+000
    outer loop
      vertex   -9.510564e+001 3.090171e+001 2.842171e-013
      vertex   -2.087219e-013 -1.000000e+002 2.842170e-013
      vertex   -3.090170e+001 -9.510564e+001 2.842171e-013
    endloop
  endfacet
  facet normal -1.985233e-022 -4.917230e-022 -1.564345e+000
    outer loop
      vertex   -9.510564e+001 3.090171e+001 2.842171e-013
      vertex   -3.090170e+001 -9.510564e+001 2.842171e-013
      vertex   -5.877852e+001 -8.090171e+001 2.842171e-013
    endloop
  endfacet
  facet normal 1.217610e-020 -2.189830e-021 -8.090169e+000
    outer loop
      vertex   5.877850e+001 8.090171e+001 2.842171e-013
      vertex   8.090171e+001 5.877850e+001 2.842171e-013
      vertex   3.090171e+001 -9.510564e+001 2.842171e-013
    endloop
  endfacet
  facet normal 9.926167e-022 2.522927e-023 -1.564342e+000
    outer loop
      vertex   3.090171e+001 -9.510564e+001 2.842171e-013
      vertex   8.090171e+001 5.877850e+001 2.842171e-013
      vertex   9.510562e+001 3.090171e+001 2.842171e-013
    endloop
  endfacet
  facet normal -3.044025e-021 3.513312e-021 -5.877855e+000
    outer loop
      vertex   3.090171e+001 -9.510564e+001 2.842171e-013
      vertex   9.510562e+001 3.090171e+001 2.842171e-013
      vertex   5.877850e+001 -8.090171e+001 2.842171e-013
    endloop
  endfacet
  facet normal -1.952146e-021 1.299500e-021 -1.564348e+000
    outer loop
      vertex   5.877850e+001 -8.090171e+001 2.842171e-013
      vertex   9.510562e+001 3.090171e+001 2.842171e-013
      vertex   1.000000e+002 0.000000e+000 2.842171e-013
    endloop
  endfacet
  facet normal 5.459392e-021 -2.471795e-021 -1.564341e+000
    outer loop
      vertex   5.877850e+001 -8.090171e+001 2.842171e-013
      vertex   1.000000e+002 0.000000e+000 2.842171e-013
      vertex   9.510562e+001 -3.090170e+001 2.842171e-013
    endloop
  endfacet
  facet normal 8.801202e-021 1.604085e-021 -4.539906e+000
    outer loop
      vertex   -5.877852e+001 -8.090171e+001 2.842171e-013
      vertex   -8.090171e+001 -5.877852e+001 2.842171e-013
      vertex   -9.510564e+001 3.090171e+001 2.842171e-013
    endloop
  endfacet
  facet normal -4.632211e-022 0.000000e+000 -1.564342e+000
    outer loop
      vertex   -9.510564e+001 3.090171e+001 2.842171e-013
      vertex   -8.090171e+001 -5.877852e+001 2.842171e-013
      vertex   -9.510564e+001 -3.090170e+001 2.842171e-013
    endloop
  endfacet
  facet normal -3.374897e-021 0.000000e+000 -1.564348e+000
    outer loop
      vertex   -9.510564e+001 3.090171e+001 2.842171e-013
      vertex   -9.510564e+001 -3.090170e+001 2.842171e-013
      vertex   -1.000000e+002 0.000000e+000 2.842171e-013
    endloop
  endfacet
endsolid
