solid ascii
  facet normal -1.000000e+001 0.000000e+000 0.000000e+000
    outer loop
      vertex   -5.000000e+002 -5.000000e+002 1.000000e+003
      vertex   -5.000000e+002 5.000000e+002 1.000000e+003
      vertex   -5.000000e+002 -5.000000e+002 0.000000e+000
    endloop
  endfacet
  facet normal -7.071068e+000 0.000000e+000 0.000000e+000
    outer loop
      vertex   -5.000000e+002 -5.000000e+002 0.000000e+000
      vertex   -5.000000e+002 5.000000e+002 1.000000e+003
      vertex   -5.000000e+002 5.000000e+002 0.000000e+000
    endloop
  endfacet
  facet normal -0.000000e+000 -1.000000e+001 -0.000000e+000
    outer loop
      vertex   5.000000e+002 -5.000000e+002 1.000000e+003
      vertex   -5.000000e+002 -5.000000e+002 1.000000e+003
      vertex   5.000000e+002 -5.000000e+002 0.000000e+000
    endloop
  endfacet
  facet normal 0.000000e+000 -7.071068e+000 0.000000e+000
    outer loop
      vertex   5.000000e+002 -5.000000e+002 0.000000e+000
      vertex   -5.000000e+002 -5.000000e+002 1.000000e+003
      vertex   -5.000000e+002 -5.000000e+002 0.000000e+000
    endloop
  endfacet
  facet normal 1.000000e+001 0.000000e+000 0.000000e+000
    outer loop
      vertex   5.000000e+002 5.000000e+002 1.000000e+003
      vertex   5.000000e+002 -5.000000e+002 1.000000e+003
      vertex   5.000000e+002 5.000000e+002 0.000000e+000
    endloop
  endfacet
  facet normal 7.071068e+000 0.000000e+000 0.000000e+000
    outer loop
      vertex   5.000000e+002 5.000000e+002 0.000000e+000
      vertex   5.000000e+002 -5.000000e+002 1.000000e+003
      vertex   5.000000e+002 -5.000000e+002 0.000000e+000
    endloop
  endfacet
  facet normal 0.000000e+000 1.000000e+001 0.000000e+000
    outer loop
      vertex   -5.000000e+002 5.000000e+002 1.000000e+003
      vertex   5.000000e+002 5.000000e+002 1.000000e+003
      vertex   -5.000000e+002 5.000000e+002 0.000000e+000
    endloop
  endfacet
  facet normal 0.000000e+000 7.071068e+000 0.000000e+000
    outer loop
      vertex   -5.000000e+002 5.000000e+002 0.000000e+000
      vertex   5.000000e+002 5.000000e+002 1.000000e+003
      vertex   5.000000e+002 5.000000e+002 0.000000e+000
    endloop
  endfacet
  facet normal 0.000000e+000 0.000000e+000 1.000000e+001
    outer loop
      vertex   5.000000e+002 -5.000000e+002 1.000000e+003
      vertex   5.000000e+002 5.000000e+002 1.000000e+003
      vertex   -5.000000e+002 -5.000000e+002 1.000000e+003
    endloop
  endfacet
  facet normal 0.000000e+000 0.000000e+000 7.071068e+000
    outer loop
      vertex   -5.000000e+002 -5.000000e+002 1.000000e+003
      vertex   5.000000e+002 5.000000e+002 1.000000e+003
      vertex   -5.000000e+002 5.000000e+002 1.000000e+003
    endloop
  endfacet
  facet normal -0.000000e+000 -0.000000e+000 -1.000000e+001
    outer loop
      vertex   5.000000e+002 5.000000e+002 0.000000e+000
      vertex   5.000000e+002 -5.000000e+002 0.000000e+000
      vertex   -5.000000e+002 5.000000e+002 0.000000e+000
    endloop
  endfacet
  facet normal 0.000000e+000 0.000000e+000 -7.071068e+000
    outer loop
      vertex   -5.000000e+002 5.000000e+002 0.000000e+000
      vertex   5.000000e+002 -5.000000e+002 0.000000e+000
      vertex   -5.000000e+002 -5.000000e+002 0.000000e+000
    endloop
  endfacet
endsolid
